 http://imageshack.us/m/560/4261/4hep7l.jpg

Country.......: USA
Genre.........: Action, Thriller, Crime
Date release..: 01.09.2010 [World]
Director......: Ethan Maniquis, Robert Rodriguez
Writers.......: Robert Rodriguez, Alvaro Rodriguez
Duration......: 105 min.
More..........: http://www.imdb.com/title/tt0985694
Trailer.......: http://www.imdb.com/video/imdb/vi2646935065
Trailer.......:

Pilot :
After being set-up and betrayed by the man who hired him to assassinate a Texas Senator, an ex-Federale launches a brutal rampage of revenge against his former boss. 

Cats :
Danny Trejo   	 ...  	Machete Cortez
Robert De Niro 	... 	Senator John McLaughlin
Jessica Alba 	... 	Sartana
Steven Seagal 	... 	Rogelio Torrez
Michelle Rodriguez 	... 	Luz
Jeff Fahey 	... 	Michael Booth
Cheech Marin 	... 	Padre Cortez
Don Johnson 	... 	Von Jackson
Shea Whigham 	... 	Sniper
Lindsay Lohan 	... 	April Booth
Daryl Sabara 	... 	Julio
Gilbert Trejo 	... 	Jorge
Electra Avellan 	... 	Nurse Mona
Ara Celi 	... 	Reporter
Tom Savini 	... 	Osiris Amanpour 

Data Technical :
!!! SAMPLE !!!
Audio.....: English
Subtitles.: English .srt, Spanish .srt, French .srt, Polish .txt
Format                           : AVI
Format/Info                      : Audio Video Interleave
File size                        : 701 MiB
Duration                         : 1h 44mn
Overall bit rate                 : 934 Kbps
Writing application              : VirtualDubMod 1.5.4.1 (build 2178/release)
Writing library                  : VirtualDubMod build 2178/release
Video
ID                               : 0
Format                           : MPEG-4 Visual
Format profile                   : Advanced Simple@L5
Format settings, BVOP            : Yes
Format settings, QPel            : No
Format settings, GMC             : No warppoints
Format settings, Matrix          : Default (H.263)
Muxing mode                      : Packed bitstream
Codec ID                         : DX50
Codec ID/Hint                    : DivX 5
Duration                         : 1h 44mn
Bit rate                         : 813 Kbps
Width                            : 608 pixels
Height                           : 336 pixels
Display aspect ratio             : 16:9
Frame rate                       : 23.976 fps
Color space                      : YUV
Chroma subsampling               : 4:2:0
Bit depth                        : 8 bits
Scan type                        : Progressive
Bits/(Pixel*Frame)               : 0.166
Stream size                      : 610 MiB (87%)
Writing library                  : XviD 1.2.1 (UTC 2008-12-04)
Audio
ID                               : 1
Format                           : MPEG Audio
Format version                   : Version 1
Format profile                   : Layer 3
Mode                             : Joint stereo
Mode extension                   : MS Stereo
Codec ID                         : 55
Codec ID/Hint                    : MP3
Duration                         : 1h 44mn
Bit rate mode                    : Constant
Bit rate                         : 112 Kbps
Channel(s)                       : 2 channels
Sampling rate                    : 44.1 KHz
Video delay                      : 26ms
Stream size                      : 84.1 MiB (12%)
Alignment                        : Split accross interleaves
Interleave, duration             : 42 ms (1.00 video frame)
Interleave, preload duration     : 500 ms
Writing library                  : LAME3.92

Screen : 
http://imageshack.us/m/848/8844/machete2010s1.jpg 
http://imageshack.us/m/23/8494/machete2010s2.jpg 
http://imageshack.us/m/28/8934/machete2010s3.jpg 
http://imageshack.us/m/861/2617/machete2010s4.jpg 
http://imageshack.us/m/718/2269/machete2010s5.jpg